<svg width="172" height="40" viewBox="0 0 172 40" fill="none" xmlns="http://www.w3.org/2000/svg">
<path d="M7.13867 7.82812V32H2.1582V7.82812H7.13867ZM16.7676 18.1543V22.0391H5.77734V18.1543H16.7676ZM17.9297 7.82812V11.7295H5.77734V7.82812H17.9297ZM30.0993 27.7002V14.0371H34.8805V32H30.3815L30.0993 27.7002ZM30.6305 24.0146L32.0417 23.9814C32.0417 25.1768 31.9033 26.2891 31.6266 27.3184C31.3499 28.3366 30.9349 29.222 30.3815 29.9746C29.8281 30.7161 29.1309 31.2972 28.2897 31.7178C27.4486 32.1273 26.458 32.332 25.318 32.332C24.4437 32.332 23.6358 32.2103 22.8942 31.9668C22.1637 31.7122 21.5329 31.3193 21.0016 30.7881C20.4815 30.2458 20.072 29.554 19.7731 28.7129C19.4854 27.8607 19.3415 26.8369 19.3415 25.6416V14.0371H24.1227V25.6748C24.1227 26.2061 24.1836 26.6543 24.3054 27.0195C24.4382 27.3848 24.6208 27.6836 24.8532 27.916C25.0856 28.1484 25.3568 28.3145 25.6667 28.4141C25.9876 28.5137 26.3418 28.5635 26.7292 28.5635C27.7142 28.5635 28.4889 28.3643 29.0534 27.9658C29.6289 27.5674 30.0329 27.0251 30.2653 26.3389C30.5088 25.6416 30.6305 24.8669 30.6305 24.0146ZM46.6517 14.0371V17.4238H36.1927V14.0371H46.6517ZM38.7826 9.60449H43.5638V26.5879C43.5638 27.1081 43.6302 27.5065 43.763 27.7832C43.9069 28.0599 44.1172 28.2536 44.3939 28.3643C44.6706 28.4639 45.0192 28.5137 45.4398 28.5137C45.7386 28.5137 46.0043 28.5026 46.2367 28.4805C46.4802 28.4473 46.6849 28.4141 46.8509 28.3809L46.8675 31.9004C46.458 32.0332 46.0153 32.1383 45.5394 32.2158C45.0635 32.2933 44.5378 32.332 43.9623 32.332C42.9108 32.332 41.9922 32.1605 41.2064 31.8174C40.4317 31.4632 39.834 30.8988 39.4134 30.124C38.9929 29.3493 38.7826 28.3311 38.7826 27.0693V9.60449ZM59.3194 27.7002V14.0371H64.1006V32H59.6016L59.3194 27.7002ZM59.8506 24.0146L61.2618 23.9814C61.2618 25.1768 61.1234 26.2891 60.8467 27.3184C60.57 28.3366 60.155 29.222 59.6016 29.9746C59.0482 30.7161 58.3509 31.2972 57.5098 31.7178C56.6687 32.1273 55.6781 32.332 54.5381 32.332C53.6638 32.332 52.8558 32.2103 52.1143 31.9668C51.3838 31.7122 50.753 31.3193 50.2217 30.7881C49.7015 30.2458 49.292 29.554 48.9932 28.7129C48.7054 27.8607 48.5616 26.8369 48.5616 25.6416V14.0371H53.3428V25.6748C53.3428 26.2061 53.4037 26.6543 53.5254 27.0195C53.6582 27.3848 53.8409 27.6836 54.0733 27.916C54.3057 28.1484 54.5769 28.3145 54.8868 28.4141C55.2077 28.5137 55.5619 28.5635 55.9493 28.5635C56.9343 28.5635 57.709 28.3643 58.2735 27.9658C58.849 27.5674 59.253 27.0251 59.4854 26.3389C59.7289 25.6416 59.8506 24.8669 59.8506 24.0146ZM71.8542 17.9551V32H67.073V14.0371H71.572L71.8542 17.9551ZM77.2663 13.9209L77.1833 18.3535C76.9509 18.3203 76.6687 18.2926 76.3366 18.2705C76.0157 18.2373 75.7224 18.2207 75.4568 18.2207C74.7816 18.2207 74.195 18.3092 73.697 18.4863C73.21 18.6523 72.8005 18.9014 72.4685 19.2334C72.1475 19.5654 71.904 19.9694 71.738 20.4453C71.5831 20.9212 71.4945 21.4635 71.4724 22.0723L70.5095 21.7734C70.5095 20.6113 70.6257 19.5433 70.8581 18.5693C71.0905 17.5843 71.4281 16.7266 71.8708 15.9961C72.3246 15.2656 72.878 14.7012 73.531 14.3027C74.184 13.9043 74.931 13.7051 75.7722 13.7051C76.0378 13.7051 76.309 13.7272 76.5857 13.7715C76.8624 13.8047 77.0892 13.8545 77.2663 13.9209ZM86.7797 32.332C85.3852 32.332 84.1345 32.1107 83.0277 31.668C81.921 31.2142 80.9802 30.5889 80.2055 29.792C79.4418 28.9951 78.8552 28.071 78.4457 27.0195C78.0362 25.957 77.8314 24.8281 77.8314 23.6328V22.9688C77.8314 21.6074 78.0251 20.3623 78.4125 19.2334C78.7999 18.1045 79.3533 17.125 80.0727 16.2949C80.8031 15.4648 81.6885 14.8285 82.7289 14.3857C83.7693 13.932 84.9424 13.7051 86.2484 13.7051C87.5212 13.7051 88.6501 13.9154 89.6352 14.3359C90.6202 14.7565 91.4447 15.3542 92.1088 16.1289C92.7839 16.9036 93.293 17.8333 93.6361 18.918C93.9792 19.9915 94.1508 21.1868 94.1508 22.5039V24.4961H79.8734V21.3086H89.4525V20.9434C89.4525 20.2793 89.3308 19.6872 89.0873 19.167C88.8549 18.6357 88.5007 18.2152 88.0248 17.9053C87.5489 17.5954 86.9402 17.4404 86.1986 17.4404C85.5678 17.4404 85.0255 17.5788 84.5717 17.8555C84.1179 18.1322 83.7471 18.5195 83.4594 19.0176C83.1827 19.5156 82.9724 20.1022 82.8285 20.7773C82.6957 21.4414 82.6293 22.1719 82.6293 22.9688V23.6328C82.6293 24.3522 82.7289 25.0163 82.9281 25.625C83.1384 26.2337 83.4317 26.7594 83.808 27.2021C84.1954 27.6449 84.6602 27.988 85.2025 28.2314C85.7559 28.4749 86.3812 28.5967 87.0785 28.5967C87.9418 28.5967 88.7442 28.4307 89.4857 28.0986C90.2383 27.7555 90.8858 27.2409 91.4281 26.5547L93.7523 29.0781C93.376 29.6204 92.8614 30.1406 92.2084 30.6387C91.5665 31.1367 90.7917 31.5462 89.8842 31.8672C88.9766 32.1771 87.9418 32.332 86.7797 32.332ZM103.217 23.2012V22.8525C103.217 21.5355 103.405 20.3236 103.781 19.2168C104.157 18.099 104.705 17.1305 105.425 16.3115C106.144 15.4925 107.029 14.8561 108.081 14.4023C109.132 13.9375 110.339 13.7051 111.7 13.7051C113.061 13.7051 114.273 13.9375 115.336 14.4023C116.398 14.8561 117.289 15.4925 118.009 16.3115C118.739 17.1305 119.292 18.099 119.669 19.2168C120.045 20.3236 120.233 21.5355 120.233 22.8525V23.2012C120.233 24.5072 120.045 25.7191 119.669 26.8369C119.292 27.9437 118.739 28.9121 118.009 29.7422C117.289 30.5612 116.404 31.1976 115.352 31.6514C114.301 32.1051 113.094 32.332 111.733 32.332C110.372 32.332 109.16 32.1051 108.097 31.6514C107.046 31.1976 106.155 30.5612 105.425 29.7422C104.705 28.9121 104.157 27.9437 103.781 26.8369C103.405 25.7191 103.217 24.5072 103.217 23.2012ZM107.998 22.8525V23.2012C107.998 23.9538 108.064 24.6566 108.197 25.3096C108.33 25.9626 108.54 26.5381 108.828 27.0361C109.127 27.5231 109.514 27.9049 109.99 28.1816C110.466 28.4583 111.047 28.5967 111.733 28.5967C112.397 28.5967 112.967 28.4583 113.443 28.1816C113.919 27.9049 114.301 27.5231 114.589 27.0361C114.876 26.5381 115.087 25.9626 115.219 25.3096C115.363 24.6566 115.435 23.9538 115.435 23.2012V22.8525C115.435 22.1221 115.363 21.4359 115.219 20.7939C115.087 20.141 114.871 19.5654 114.572 19.0674C114.284 18.5583 113.902 18.1598 113.427 17.8721C112.951 17.5843 112.375 17.4404 111.7 17.4404C111.025 17.4404 110.449 17.5843 109.973 17.8721C109.509 18.1598 109.127 18.5583 108.828 19.0674C108.54 19.5654 108.33 20.141 108.197 20.7939C108.064 21.4359 107.998 22.1221 107.998 22.8525ZM127.173 17.8721V32H122.392V14.0371H126.874L127.173 17.8721ZM126.476 22.3877H125.181C125.181 21.0596 125.353 19.8643 125.696 18.8018C126.039 17.7282 126.52 16.8151 127.14 16.0625C127.76 15.2988 128.496 14.7178 129.348 14.3193C130.211 13.9098 131.174 13.7051 132.237 13.7051C133.078 13.7051 133.847 13.8268 134.544 14.0703C135.242 14.3138 135.839 14.7012 136.337 15.2324C136.846 15.7637 137.234 16.4665 137.499 17.3408C137.776 18.2152 137.914 19.2832 137.914 20.5449V32H133.1V20.5283C133.1 19.7314 132.989 19.1117 132.768 18.6689C132.547 18.2262 132.22 17.9163 131.789 17.7393C131.368 17.5511 130.848 17.457 130.228 17.457C129.586 17.457 129.027 17.5843 128.551 17.8389C128.086 18.0934 127.699 18.4476 127.389 18.9014C127.09 19.3441 126.863 19.8643 126.708 20.4619C126.553 21.0596 126.476 21.7015 126.476 22.3877ZM149.138 32.332C147.743 32.332 146.493 32.1107 145.386 31.668C144.279 31.2142 143.338 30.5889 142.564 29.792C141.8 28.9951 141.213 28.071 140.804 27.0195C140.394 25.957 140.19 24.8281 140.19 23.6328V22.9688C140.19 21.6074 140.383 20.3623 140.771 19.2334C141.158 18.1045 141.711 17.125 142.431 16.2949C143.161 15.4648 144.047 14.8285 145.087 14.3857C146.127 13.932 147.301 13.7051 148.607 13.7051C149.879 13.7051 151.008 13.9154 151.993 14.3359C152.978 14.7565 153.803 15.3542 154.467 16.1289C155.142 16.9036 155.651 17.8333 155.994 18.918C156.337 19.9915 156.509 21.1868 156.509 22.5039V24.4961H142.232V21.3086H151.811V20.9434C151.811 20.2793 151.689 19.6872 151.445 19.167C151.213 18.6357 150.859 18.2152 150.383 17.9053C149.907 17.5954 149.298 17.4404 148.557 17.4404C147.926 17.4404 147.384 17.5788 146.93 17.8555C146.476 18.1322 146.105 18.5195 145.818 19.0176C145.541 19.5156 145.331 20.1022 145.187 20.7773C145.054 21.4414 144.987 22.1719 144.987 22.9688V23.6328C144.987 24.3522 145.087 25.0163 145.286 25.625C145.497 26.2337 145.79 26.7594 146.166 27.2021C146.554 27.6449 147.018 27.988 147.561 28.2314C148.114 28.4749 148.739 28.5967 149.437 28.5967C150.3 28.5967 151.102 28.4307 151.844 28.0986C152.596 27.7555 153.244 27.2409 153.786 26.5547L156.11 29.0781C155.734 29.6204 155.22 30.1406 154.567 30.6387C153.925 31.1367 153.15 31.5462 152.242 31.8672C151.335 32.1771 150.3 32.332 149.138 32.332Z" fill="#2B2D26"/>
</svg>
